<svg width="438" height="405" viewBox="0 0 438 405" fill="none" xmlns="http://www.w3.org/2000/svg">
<path d="M81 0H63V41H81V0Z" fill="white"/>
<path d="M381 0H363V41H381V0Z" fill="white"/>
<path d="M343 194H307V230H343V194Z" fill="white"/>
<path d="M0 405H438V123H0V405ZM289 185C289 182.613 289.948 180.324 291.636 178.636C293.324 176.948 295.613 176 298 176H352C354.387 176 356.676 176.948 358.364 178.636C360.052 180.324 361 182.613 361 185V239C361 241.387 360.052 243.676 358.364 245.364C356.676 247.052 354.387 248 352 248H298C295.613 248 293.324 247.052 291.636 245.364C289.948 243.676 289 241.387 289 239V185ZM289 291C289 288.613 289.948 286.324 291.636 284.636C293.324 282.948 295.613 282 298 282H352C354.387 282 356.676 282.948 358.364 284.636C360.052 286.324 361 288.613 361 291V345C361 347.387 360.052 349.676 358.364 351.364C356.676 353.052 354.387 354 352 354H298C295.613 354 293.324 353.052 291.636 351.364C289.948 349.676 289 347.387 289 345V291ZM183 185C183 182.613 183.948 180.324 185.636 178.636C187.324 176.948 189.613 176 192 176H246C248.387 176 250.676 176.948 252.364 178.636C254.052 180.324 255 182.613 255 185V239C255 241.387 254.052 243.676 252.364 245.364C250.676 247.052 248.387 248 246 248H192C189.613 248 187.324 247.052 185.636 245.364C183.948 243.676 183 241.387 183 239V185ZM183 291C183 288.613 183.948 286.324 185.636 284.636C187.324 282.948 189.613 282 192 282H246C248.387 282 250.676 282.948 252.364 284.636C254.052 286.324 255 288.613 255 291V345C255 347.387 254.052 349.676 252.364 351.364C250.676 353.052 248.387 354 246 354H192C189.613 354 187.324 353.052 185.636 351.364C183.948 349.676 183 347.387 183 345V291ZM77 185C77 182.613 77.9482 180.324 79.636 178.636C81.3239 176.948 83.6131 176 86 176H140C142.387 176 144.676 176.948 146.364 178.636C148.052 180.324 149 182.613 149 185V239C149 241.387 148.052 243.676 146.364 245.364C144.676 247.052 142.387 248 140 248H86C83.6131 248 81.3239 247.052 79.636 245.364C77.9482 243.676 77 241.387 77 239V185ZM77 291C77 288.613 77.9482 286.324 79.636 284.636C81.3239 282.948 83.6131 282 86 282H140C142.387 282 144.676 282.948 146.364 284.636C148.052 286.324 149 288.613 149 291V345C149 347.387 148.052 349.676 146.364 351.364C144.676 353.052 142.387 354 140 354H86C83.6131 354 81.3239 353.052 79.636 351.364C77.9482 349.676 77 347.387 77 345V291Z" fill="white"/>
<path d="M237 300H201V336H237V300Z" fill="white"/>
<path d="M237 194H201V230H237V194Z" fill="white"/>
<path d="M438 50H0V105H438V50Z" fill="white"/>
<path d="M131 194H95V230H131V194Z" fill="white"/>
<path d="M131 300H95V336H131V300Z" fill="white"/>
<path d="M343 300H307V336H343V300Z" fill="white"/>
<path d="M228 0H210V41H228V0Z" fill="white"/>
</svg>
