<svg width="85" height="100" viewBox="0 0 85 100" fill="none" xmlns="http://www.w3.org/2000/svg">
<g clip-path="url(#clip0_174_2)">
<path fill-rule="evenodd" clip-rule="evenodd" d="M30.4584 87C31.0244 85.6452 33.3846 84.5178 33.3846 83C33.3846 81.4327 30.8681 80.2817 30.4087 78.8668C29.9333 77.4006 31.2758 74.9939 30.3878 73.7731C29.4916 72.5407 26.7809 73.079 25.5488 72.1814C24.3294 71.2932 24.0087 68.5446 22.5428 68.0679C21.1282 67.6087 19.2591 69.6294 17.6922 69.6294C16.5249 69.6294 15.1899 68.5079 14 68.1258V2H65.5512L83 19.1718V87H30.4584Z" fill="white" stroke="#800000" stroke-width="4" stroke-linecap="round" stroke-linejoin="round"/>
<path d="M80 20H64V4" stroke="#800000" stroke-width="4" stroke-linecap="round" stroke-linejoin="round"/>
<path fill-rule="evenodd" clip-rule="evenodd" d="M33.3846 83C33.3846 84.5673 30.868 85.7183 30.4089 87.1333C29.9335 88.5994 31.2761 91.0061 30.388 92.2269C29.9486 92.8303 29.0757 93.0093 28.1538 93.1408C27.1926 93.2768 26.1778 93.3605 25.5489 93.8186C24.3551 94.6882 24.0227 97.3426 22.6325 97.8972C22.6034 97.91 22.5732 97.9216 22.5429 97.9309C21.1283 98.3913 19.2592 96.3706 17.6923 96.3706C16.1254 96.3706 14.2563 98.3913 12.8417 97.9321C12.8115 97.9229 12.7812 97.9112 12.7522 97.8984C11.3619 97.3427 11.0295 94.6883 9.83568 93.8186C9.20683 93.3605 8.19205 93.2768 7.23077 93.1408C6.30896 93.0094 5.43608 92.8303 4.99664 92.2269C4.1086 91.0061 5.45114 88.5994 4.97569 87.1333C4.51652 85.7183 2 84.5672 2 83C2 81.4328 4.51661 80.2817 4.97569 78.8668C5.45114 77.4006 4.10851 74.9939 4.99664 73.7731C5.89282 72.5407 8.60352 73.079 9.83568 72.1814C11.055 71.2932 11.3759 68.5446 12.8416 68.0679C14.2562 67.6086 16.1253 69.6294 17.6922 69.6294C19.2591 69.6294 21.1282 67.6087 22.5428 68.0679C24.0087 68.5446 24.3294 71.2932 25.5488 72.1814C26.7809 73.079 29.4916 72.5407 30.3878 73.7731C31.2758 74.9939 29.9333 77.4006 30.4087 78.8668C30.8681 80.2817 33.3846 81.4327 33.3846 83Z" fill="white" stroke="#800000" stroke-width="4" stroke-linecap="round" stroke-linejoin="round"/>
<path d="M26 47H72" stroke="#800000" stroke-width="4" stroke-linecap="round" stroke-linejoin="round"/>
<path d="M26 59H72" stroke="#800000" stroke-width="4" stroke-linecap="round" stroke-linejoin="round"/>
<path d="M26 35H72" stroke="#800000" stroke-width="4" stroke-linecap="round" stroke-linejoin="round"/>
</g>
<defs>
<clipPath id="clip0_174_2">
<rect width="85" height="100" fill="white"/>
</clipPath>
</defs>
</svg>
