<svg width="84" height="74" viewBox="0 0 84 74" fill="none" xmlns="http://www.w3.org/2000/svg">
<path d="M67.1655 30.7012H53.6675V42.3892H41.9805V55.8872H53.6675V67.5742H67.1655V55.8872H78.8535V42.3892H67.1655V30.7012Z" fill="white"/>
<path d="M39.266 39.674H50.954V27.986H69.882V39.674H75.261L76.625 38.31C85.389 29.546 85.389 15.337 76.625 6.573C67.861 -2.191 53.652 -2.191 44.888 6.573L41.599 9.863L38.31 6.573C29.545 -2.191 15.336 -2.191 6.573 6.573C-2.191 15.338 -2.191 29.547 6.573 38.31L41.598 73.337L50.953 63.982V58.601H39.266V39.674Z" fill="white"/>
</svg>
