<?xml version="1.0" encoding="UTF-8"?><svg id="a" xmlns="http://www.w3.org/2000/svg" width="368.3" height="66.6" viewBox="0 0 368.3 66.6"><defs><style>.b{fill:maroon;}.b,.c{stroke-width:0px;}</style></defs><path class="b" d="m14.5,64.7c-3.1.3-4.5.3-5.8,1-.2.1-.5.3-.7.4-.5.2-.9,0-1.1-.5-.6-1.2.3-2.5,1.5-3.1.2-.1.4-.2.7-.3.2,0,.4-.3.3-.5-.3-.6-5.2-.6-8.1-6.3-3.1-6,.2-13.1,7.4-16.5,9.1-4.2,15.7,1.5,17.3,5.3,2,4.6.5,9.2-3.3,12.9-.1.1-.3.4-.2.6.2.5,1.7.8,5.3-.7,1.2-.5,2-1.5,2.2-1.6.5-.2,1.1.4,1.3.8.4.9-.5,4.4-5.5,6.6-1.9.9-3.4,1.1-5.5,1.4-1.9.1-3.7.3-5.6.4Zm-5.4-20.7c-1.8.9-1.9,3-1.2,4.4,1.2,2.4,6.4,8.4,9.7,6.8,1.9-.9,2-2.8,1.3-4.4-1.2-2.6-6-8.6-9.8-6.8Z"/><path class="b" d="m37.9,43.7c.5,1.2,1.3,3,3,2.3,2.3-.9.9-3.6.4-5-.4-1-.8-2.3-1.4-3.2-.8-1.4-2.2-.3-2.7-1.5-.7-1.8,5.8-4.6,7.1-5,1.2-.4,1.9,0,2.3,1.1.3,1,.6,1.9,1,2.9.7,2,1.5,4,2.2,6,.7,1.8,2.1.3,2.6,1.8.7,2-4.7,4.7-6.4,5.3-2.4.9-1.5-1.5-2.8-1-.3.1-.7.8-1.3,1.5-.6.7-1.4,1.6-2.8,2.1-6,2.4-7.3-2.2-9.2-6.6-1.9-4.5-3.3-1.6-4.1-3.5-.8-1.9,7.4-5.4,7.7-5.5.9-.4,1.2,0,1.5.7,1,2.5,2,5,3,7.5Z"/><path class="b" d="m68.1,32.3c1.6,5.4,2.7,1.8,3.2,3.5.5,1.7-1.4,4.4-3.8,5.1-2.5.8-3.1-.7-3.9-.5-.4.1-.7.7-1.3,1.3-.6.6-1.4,1.3-2.9,1.8-2.7.9-5.8.5-6.8-2.5-.8-2.1.5-5.6,6.3-7.5,1-.3,1.5-.4,1.1-1.5-.3-1-1-3.1-2.6-2.6-2,.7-1.1,4-4,5-1,.4-2.1,0-2.4-1-.9-2.6,4.1-6.2,7.3-7.2,1.9-.6,7.4-1.6,8.8,3,.3,1,.6,2,.9,3.1Zm-8.9,5.8c.3.8,1,1.5,1.9,1.2,1.2-.4.9-1.7.6-2.6-.2-.7-.4-1.4-1.3-1.1-1.1.4-1.5,1.6-1.2,2.6Z"/><path class="b" d="m81.3,30.5c.1.6.4,1.6.7,2,.7,1,2,0,2.3,1.4.5,2.1-3.5,3-4.9,3.4-1.5.4-5.9,1.9-6.6-.3-.3-1.1,1.2-1.1,1.3-2.3,0-1.4-1.1-5.2-1.5-6.7-.3-1.2-.9-3.5-1.7-4.8-1.2-2.1-2.9-.7-3.4-2.5-.8-2.7,7.9-5.9,8.4-6,1.2-.3,1.6.3,1.9,1.2.2.7.7,4.2,1.9,8.6.5,2,1.1,4,1.6,6Z"/><path class="b" d="m93.7,27.2c.9,3.7,2.5,1.9,2.9,3.5.5,2.1-3.7,3.1-5.1,3.5-5.6,1.4-6.1.3-6.3-.5-.3-1.1,1-1.5,1.2-2.6.1-1.2-.9-5.7-1.6-6.7-.6-1-2.2-.2-2.6-1.6-.6-2.2,7.8-5.3,8.1-5.4,1-.2,1.2.5,1.4,1.1.7,2.9,1.4,5.8,2.1,8.7Zm-9.4-9.4c-1.4.4-3.1.2-3.5-1.3-.5-2,3.8-4.1,5.6-4.5,1.4-.3,3.4-.4,3.8,1.1.6,2.4-3.9,4.2-5.9,4.7Z"/><path class="b" d="m106.7,23.3c.4,2.1,1.5,2.4,2.4,2.2,1-.2,1.5-1,2.1-1.2.7-.1,1.3.7,1.4,1.2.4,2.1-3,4.6-6.3,5.3-1.7.3-6,.6-7.1-4.4-.5-2.1-1-4.3-1.4-6.4-.1-.6-.2-.8-.4-.8-.2,0-.5,0-1.3.3-.9.2-1.3.3-1.5.2-.3-.2-.3-.5-.5-1.2-.1-.4-.3-.8,0-1.1,2.2-2.1,4.5-4.2,6.8-6.2.7-.6.7-.5,1.7-.7,1.4-.3,1.4-.4,1.7,1,.2,1,.3,2,.6,2.3.2.2.4.2,1.3,0,.8-.2,1.6-.3,2.4-.5,1.5-.3,1.5-.2,1.8,1.2.3,1.8.1,2-1.2,2.2-.8.2-1.6.3-2.3.5-1.2.2-1.3.3-1,1.4.3,1.6.6,3.1.9,4.7Z"/><path class="b" d="m127.7,23.9c-1,4.5-2.5,8.8-7.8,9.8-2.3.4-5.3-.2-5.8-2.9-.3-1.6.7-3.1,2.4-3.4,3.1-.5,2.8,3,4.1,2.7.9-.1,1.1-1,1-1.8-.1-.9-1-2-1.5-2.7-2.1-2.8-4.2-5.6-6.3-8.4-.9-1.1-2.7-.4-3-1.8-.2-.9.2-2.5,7.4-3.7,1.3-.2,4.4-.6,4.7,1.2.1.9-.6,1.2-.5,2,.2,1.2,2,3.2,2.6,3.1,1-.2,1.4-2.4,1.3-3.2-.2-1.4-1.3-1.2-1.5-2.2-.3-1.7,3-2.3,4.2-2.5,1.1-.2,3.7-.3,3.9,1.1.2,1.9-1.9,1.3-2.9,3.4-.6,1.2-.9,2.7-1.2,4-.4,1.8-.8,3.6-1.2,5.4Z"/><path class="b" d="m170.4,17.3c0,1,.2,1.4,1.1,1.9.7.3,1.2.5,1.2,1.3,0,.8,0,2.3-6.6,2.6-1.5,0-5.7.3-5.9-1.8-.3-2.4,2.4.1,2-6.4-.1-1.7-.5-1.6-2.2-1.5-4.8.3-4.3.4-4.1,3.3.3,4.4,2.3,2.5,2.4,4.5.2,2.2-4.7,2.7-6.3,2.9-1.5.1-6.2.4-6.4-1.7,0-.7.4-1.1.9-1.4,1.2-.7,1.6-.6,1-7.3-.8-8.5-.9-7.7-2.2-8.3-.5-.2-1.2-.4-1.3-1.1-.3-2.5,5.6-3.3,7.6-3.4,1.5-.1,5.6-.3,5.7,1.6,0,1-.5,1.4-1.3,1.9-.8.5-1,.9-.8,3.7.1,1.8,1,1.5,2.7,1.4.6,0,1.2,0,1.8-.1,2.3-.1,2.2-.5,2.1-1.4-.2-3.5-.8-3.7-1.3-3.9-.7-.3-1.3-.6-1.4-1.4,0-.6-.3-2.4,6.7-2.8,1.7,0,6.4-.2,6.4,2,0,.7-.3,1.2-1,1.5-1,.5-1.4.4-1.2,5.4.1,2.8.2,5.5.3,8.3Z"/><path class="b" d="m182.2,15c-.4,0-.9,0-.9.5,0,1.6,2.2,2.9,3.8,2.9,2.5,0,3.8-1.4,4.5-1.4.7,0,1.3,1,1.3,1.6,0,2.5-4.8,4.2-7.8,4.2-6,0-9.2-4-9.4-8.1-.2-4.9,4.3-8.6,9.5-8.7,5.9,0,8.5,4.2,8.4,6.6,0,2.1-1.1,2.4-2.1,2.4-2.5,0-4.9,0-7.4,0Zm2.9-4c0-1.1-.8-2-2-2-1.1,0-2.1,1.1-2,2.1,0,1.1,1.2.9,2.1.9.9,0,2,.2,2-1Z"/><path class="b" d="m210,15.3c-.3,5.6,1.9,2.7,1.8,4.4-.1,1.8-2.8,3.6-5.3,3.5-2.6-.1-2.6-1.8-3.5-1.8-.4,0-.9.4-1.6.7-.8.4-1.8.8-3.3.7-2.8,0-5.5-1.5-5.5-4.7,0-2.3,2.4-5.1,8.4-4.9,1.1,0,1.5.1,1.6-1,0-1.1,0-3.3-1.5-3.3-2.1,0-2.4,3.4-5.4,3.3-1.1,0-1.9-.8-1.9-1.8,0-2.7,5.9-4.4,9.3-4.2,2,0,7.4,1.1,7.1,5.9,0,1.1-.1,2.1-.2,3.2Zm-10.3,2.3c0,.8.4,1.7,1.4,1.8,1.3,0,1.4-1.3,1.5-2.2,0-.7,0-1.5-.9-1.5-1.2,0-2,1-2,2Z"/><path class="b" d="m223.4,17.1c-.2,2.1.7,2.7,1.6,2.8,1,.1,1.7-.6,2.3-.5.7,0,1.1,1,1,1.6-.2,2.1-4.2,3.5-7.6,3.2-1.7-.2-5.9-1.2-5.5-6.2.2-2.2.3-4.4.5-6.6,0-.6,0-.8-.1-.9-.2-.1-.5,0-1.3-.1-.9,0-1.3,0-1.5-.2-.2-.2-.1-.6,0-1.3,0-.4,0-.8.4-1,2.7-1.4,5.5-2.7,8.3-4,.8-.4.8-.3,1.8-.2,1.4.1,1.5,0,1.3,1.5,0,1-.3,2-.1,2.4,0,.3.3.3,1.2.4.8,0,1.6.2,2.4.2,1.5.2,1.5.3,1.3,1.7-.2,1.8-.4,1.9-1.8,1.8-.8,0-1.6-.2-2.4-.2-1.2-.1-1.3,0-1.4,1.1-.1,1.6-.3,3.2-.4,4.7Z"/><path class="b" d="m239.2,19.9c-.5,3.7,1.7,2.6,1.4,4.3-.3,2.1-4.5,1.6-6,1.4-5.7-.7-5.8-1.9-5.7-2.7.1-1.1,1.5-1.1,2-2,.6-1.1,1.2-5.7.9-6.9-.2-1.1-2-1-1.8-2.4.2-2.3,9.1-2.2,9.5-2.1,1,.1,1,.9.9,1.5-.4,2.9-.8,5.9-1.2,8.8Zm-5.4-12.1c-1.5-.2-3-.9-2.8-2.5.2-2.1,5-2.4,6.7-2.2,1.4.2,3.4.8,3.1,2.4-.3,2.5-5.1,2.5-7.1,2.3Z"/><path class="b" d="m251.4,22.3c-.5,3.1.7,2.7.5,3.9-.3,1.9-4.7,1.2-6.1,1-1.3-.2-4.7-.7-4.4-2.6.2-1.5,1.6,0,2.1-3,.3-1.6.5-3.1.8-4.7.4-2.3-1.8-1.9-1.5-3.5.2-1.7,8.4-2.1,9.1-2,.8.1,1.1.8,1,1.4,0,.2,0,.4-.1.6,0,.4,0,.8.5.9.5,0,1-.5,1.8-1.1.8-.5,1.9-1,3.9-.7,7.1,1.3,4.7,7.5,4.1,12.3-.3,2.5,1.2,2.2.9,3.6-.1.6-.2,1.9-6.4.7-1.2-.2-4.4-.7-4.1-2.5.2-1.1,1.2-.4,1.7-2.4.6-2.2,2.4-7.1-.8-7.6-2.2-.4-2.3,1.8-2.6,3.3-.1.8-.3,1.6-.4,2.4Z"/><path class="b" d="m271.4,38.2c-6-1.3-7.8-3.9-7.4-5.9.4-1.8,2.2-1.5,2.3-1.9,0-.4-1.5-1.6-1.2-3,.4-2.2,3.3-2.3,3.4-2.8,0-.4-1.9-2.3-1.4-4.6.8-3.8,6.3-4.5,9.7-3.7,1.7.4,4,1.5,5.1,1.8,2.6.6,4.3-.7,4.8-.6.8.2.9,1.2.7,1.8-.4,1.7-2.6,2.5-2.7,2.8,0,.3,0,.7-.1,1-1.1,4.2-6.6,4.3-10.2,3.5-.6-.1-1.1-.3-1.7-.5-.6-.1-1,.1-1.1.6-.2,1,1.2,1.5,2,1.6,1,.2,5,.6,6.3.9,3.4.8,4.4,3,3.9,4.9-.7,2.8-4.4,5.8-12.3,4Zm.9-2.6c1.1.2,3.5.6,3.9-.8.2-.7-.4-1.1-1.1-1.2-.5-.1-1.8-.2-2.9-.4-.8-.2-2.5-.8-2.8-.9-.3,0-.5.2-.5.4-.4,1.7,2.1,2.6,3.4,2.9Zm4-17.1c-1.3-.3-2.2.7-2.4,1.8-.3,1.2-.5,3.8,1.2,4.2,1.5.3,2.3-.8,2.6-2,.3-1.3.5-3.7-1.4-4.1Z"/><path class="b" d="m285.7,39.8c.1-.5,2.2-2,2.6-3.2.4-1.3-3.4-1.6-2.4-5.4.5-2,2.7-3.3,4.8-2.7,3,.8,3.7,3.9,3,6.4-.8,2.7-4.1,7.2-6.6,6.5-.7-.2-1.5-.9-1.3-1.6Z"/><path class="b" d="m311.4,29.1c1.2-3.9,1.2-4.9,1-5.4-.5-1.1-1.8-1.6-1.4-2.8.7-2.2,7.6,0,8.3.3,2,.7,6.2,2.2,5.5,4.2-.4,1.1-1.6.6-2.7,1.1-.9.4-1.8,3.2-2.6,5.3-.3,1-.7,2-1,3-1.8,5.4-1.4,5.4-.9,6,.7.7,1.4,1.2,1,2.1-.3.9-1.1,2.1-8.1-.2-1.3-.5-5.4-1.8-4.8-3.7.3-1,1.5-.8,2.2-1.2.5-.3,1.2-1.3,2.6-5.6.3-1,.6-2,1-3Z"/><path class="b" d="m329.7,43.4c-1.1,2.9.2,2.8-.3,3.9-.7,1.8-4.9.2-6.2-.3-1.3-.5-4.5-1.6-3.9-3.4.5-1.4,1.5.4,2.7-2.5.6-1.5,1.2-3,1.8-4.5.9-2.2-1.4-2.2-.8-3.8.6-1.6,8.7-.3,9.4,0,.7.3,1,1,.7,1.6,0,.2-.2.3-.2.5-.1.4-.1.8.4,1,.5.2,1.1-.3,2-.7.9-.3,2.1-.6,4,.2,6.8,2.7,3.1,8.3,1.6,12.9-.8,2.4.7,2.4.2,3.7-.2.5-.6,1.8-6.5-.6-1.1-.5-4.2-1.6-3.5-3.3.4-1.1,1.3-.2,2.2-2,1-2,3.8-6.4.7-7.6-2.1-.8-2.7,1.3-3.2,2.7-.3.8-.6,1.5-.9,2.3Z"/><path class="b" d="m357.1,42.9c4.9,2.2,6.3,5.8,5.3,7.9-.8,1.6-2.7,2.2-4.5,1.4-3.4-1.6-.2-4.5-2.7-5.6-1.4-.6-2.8.3-3.3,1.5-1,2.2-.2,5.1,2.3,6.3,2,.9,3,.5,3.6.8.8.4,1,1.5.7,2.2-.8,1.7-4.6,2.6-9,.6-4.7-2.1-7.1-7-5.2-11.5,1.8-4.2,7.3-6,12.8-3.5Z"/><path class="b" d="m362.5,64c-2.1-1-3-3.4-2-5.3.9-1.9,3.4-2.7,5.5-1.6,2.1,1,3,3.4,2,5.3-1,1.9-3.4,2.6-5.5,1.6Z"/><path class="c" d="m98.7,54.8c-.1-.3-.4-1.1-.9-1.1-.8,0-.5,3.3-.5,4.1,0,2.6,1.6,1.4,1.6,2.7s-2.6,1.5-3.6,1.5-3.1,0-3.1-1.4,1.5-.2,1.7-2.3c.2-2.1.4-4.4.4-8s0-2.2-.4-2.8c-.2-.5-1.7-.7-1.7-1.7s2.3-1.8,4.3-1.8c2.9,0,2.8.5,3.6,1.8.9,1.5,2.4,5.5,3.5,5.8.8.2,1.8-2.8,2.7-4.4,1.3-2.3,1.3-3.1,4.5-3.1s3.6,0,3.6,1.6-1.1,1.2-1.4,2c-.2.7-.2,7.8-.1,10.1,0,1.8,1.6,1.4,1.6,2.5,0,1.7-3.4,1.6-4.5,1.6s-4.4,0-4.4-1.5,1.1-1,1.3-1.8c0-.4.6-4.7-.3-4.7s-1.6,2.2-2.1,3.4c-.5,1.1-1.4,4-2.2,3.9-.4,0-.6,0-2.1-3.3l-1.4-3.2Z"/><path class="c" d="m123.2,57.1c0,2.9,1.5,1.9,1.5,3.2s-3.1,1.7-4.2,1.7c-4.2,0-4.4-1-4.4-1.6,0-.9,1-.9,1.3-1.7.3-.9.4-4.4,0-5.4-.2-.9-1.5-.6-1.5-1.7,0-1.8,6.3-2.5,6.5-2.5.7,0,.8.6.8,1.1v6.9Zm-4.9-8.8c-1,0-2.1-.5-2.1-1.7s3.3-2.3,4.5-2.3,2.4.3,2.4,1.6c0,1.9-3.4,2.4-4.8,2.4Z"/><path class="c" d="m133.1,57.6c0,2.4.8,2,.8,2.9,0,1.5-3.3,1.5-4.3,1.5s-3.5,0-3.5-1.5,1.1-.1,1.2-2.5v-3.7c.1-1.8-1.4-1.2-1.4-2.5s5.7-2.5,6.2-2.5.9.5.9,1,0,.3,0,.4c0,.3.1.6.5.6s.6-.5,1.1-1c.5-.5,1.2-1,2.6-1,5.1,0,4.2,5,4.5,8.8.1,2,1.1,1.5,1.1,2.6s0,1.5-4.5,1.5-3.3,0-3.3-1.3.8-.5.9-2.1c.1-1.8.8-5.7-1.5-5.7s-1.4,1.7-1.4,2.8v1.9Z"/><path class="c" d="m143.6,56c0-4.4,3.9-6.9,8-6.9s6.8,3.4,6.8,6.4-4.3,6.5-8,6.5-6.8-2.1-6.8-6.1Zm6.9-4c-.8,0-1.3.8-1.2,1.5,0,1.6.5,5.4,2.2,5.5.9,0,1.1-.7,1.1-1.5s-.5-5.4-2.2-5.4Z"/><path class="c" d="m167.2,49.1c3.7,0,5.7,2.1,5.7,3.8s-1,2.4-2.4,2.4c-2.7,0-1.4-3.1-3.4-3.1s-1.7,1.1-1.7,2.1c0,1.8,1.4,3.7,3.3,3.7s2.1-.6,2.6-.6,1.1.7,1.1,1.3c0,1.5-2.2,3.3-5.7,3.3s-6.7-2.7-6.7-6.5,3.1-6.4,7.2-6.4Z"/><path class="c" d="m181.1,49.1c1.8,0,3.5.6,4.1.6,1,0,1.7-.6,2.7-.6s1.1.2,1.1.9c0,1.1-.5,3.3-.5,9.4s0,1.7,0,2.6c0,2.8,1.3,1.6,1.3,3s-2.3,1.7-3.4,1.7-5.5-.3-5.5-2.2,1.7-.5,1.7-2.5,0-.7-.3-.7c-.5,0-1.3.8-3,.8-3.7,0-5.6-3.2-5.6-6.5s3.4-6.4,7.4-6.4Zm.4,2.8c-.4,0-1.6.4-1.6,3s1,4,2,4,1.1-2.3,1.1-3.1.2-3.9-1.4-3.9Z"/><path class="c" d="m197.5,56.4c0,1,0,2.5,1.4,2.5s1.5-2.3,1.5-3.5,0-1.9,0-2.7c-.2-1.2-1.4-.8-1.4-1.9s5-1.7,5.9-1.7,1.3.5,1.3,1.4,0,1.6,0,2.3v5c0,1.5,1.4.8,1.4,2,0,1.7-4.4,2.1-5.7,2.1s-.6-1.5-1.6-1.5-.7.4-1.3.7-1.4.7-2.5.7c-4.7,0-4.3-3.7-4.3-7.4s-1.7-2.1-1.7-3.8,6.2-1.7,6.4-1.7c.7,0,.8.3.8.9v6.3Z"/><path class="c" d="m221.4,55.8c0,4.3,1.5,2,1.5,3.3s-1.9,2.9-3.7,2.9-2-1.3-2.6-1.3-.6.3-1.2.6c-.5.3-1.3.6-2.4.6-2.1,0-4.1-1.1-4.1-3.5s1.7-3.9,6-3.9,1.1,0,1.1-.8,0-2.5-1.2-2.5-1.6,2.7-3.8,2.7-1.4-.6-1.4-1.4c0-2.1,4.2-3.5,6.5-3.5s5.3.5,5.3,4.2v2.5Zm-7.4,2.2c0,.6.3,1.3,1.1,1.3s1-1,1-1.8,0-1.2-.7-1.2-1.4.8-1.4,1.6Z"/><path class="c" d="m225.5,65.3c0-.4,1.2-1.9,1.2-2.9s-2.7-.5-2.7-3.5,1.3-3,2.9-3,3.3,2.2,3.3,4.1-1.5,6.2-3.5,6.2-1.2-.4-1.2-1Z"/><path class="c" d="m252.3,54.9c-.1-.3-.3-1-.7-1s-.6.6-1.3,2.2l-1.5,3.7c-.5,1.3-.8,2.2-2.4,2.2s-1.8-.9-2.2-2l-4.6-11.7c-.7-1.8-1.7-.9-1.7-2.4s3.3-1.8,4.5-1.8c3.6,0,4.2.6,4.2,1.6s-.6.8-.6,1.6.8,2.5.9,2.8c.1.4.7,2.1,1.2,2.1s1.2-1.8,1.3-2.1c0-.1.3-.8.3-1s-.5-1.8-1.3-2.2c-.5-.2-.9-.6-.9-1.2s-.3-1.6,4.8-1.6,4.7,1.1,4.7,1.5c0,.8-1.1,1-1.1,1.7s.8,2.2,1.1,2.7c.2.4.7,1.9,1.3,1.9.8,0,1.9-4.2,1.9-4.5,0-1.1-1.6-.5-1.6-1.9s2.5-1.4,3.5-1.4,2.9.1,2.9,1.5-1,.9-1.7,2.6l-4.2,11.1c-.5,1.3-1.1,2.6-2.5,2.6s-1.6-.7-2.1-1.7l-2.3-5.4Z"/><path class="c" d="m268.1,51.8c0-3.1-.2-3.9-.5-4.2-.6-.7-1.5-.8-1.5-1.7,0-1.8,5-1.8,5.5-1.8,1.5,0,4.5,0,4.5,1.7s-.9.8-1.5,1.5c-.5.5-.5,2.8-.5,4.5v2.4c0,4.4.3,4.3.8,4.6.6.4,1.2.5,1.2,1.3s-.2,1.9-5.6,1.9-4.1,0-4.1-1.6.8-.9,1.2-1.4c.3-.3.5-1.3.5-4.7v-2.4Z"/></svg>