<svg width="1387" height="1556" viewBox="0 0 1387 1556" fill="none" xmlns="http://www.w3.org/2000/svg">
<path d="M798.271 52.442V20.3839C798.271 3.86918 779.813 -5.84537 767.184 3.86918L676.839 63.128C665.181 70.8996 665.181 88.3858 676.839 97.1289L766.213 157.359C779.813 166.102 797.299 156.388 797.299 140.844V110.729C979.933 123.358 1125.65 275.877 1125.65 462.396C1125.65 477.94 1138.28 490.568 1153.82 490.568C1169.37 490.568 1182 477.94 1182 462.396C1182.97 243.819 1011.99 65.0709 798.271 52.442Z" fill="white"/>
<path d="M871.128 825.721L781.754 765.49C768.154 756.747 750.668 766.462 750.668 782.005V812.12C568.034 799.491 422.316 646.973 422.316 460.453C422.316 444.91 409.687 432.281 394.144 432.281C378.6 432.281 365 445.882 365 461.425C365 679.031 535.005 856.807 749.696 869.436V901.494C749.696 918.009 768.154 927.724 780.783 918.009L871.128 859.722C882.786 850.979 882.786 833.492 871.128 825.721Z" fill="white"/>
<path d="M773.984 200.104C629.237 200.104 512.662 316.679 512.662 461.426C512.662 606.173 629.237 722.747 773.984 722.747C918.731 722.747 1035.31 606.173 1035.31 461.426C1035.31 316.679 918.731 200.104 773.984 200.104ZM797.299 583.828V612C797.299 616.858 793.413 620.744 788.555 620.744H759.412C754.555 620.744 750.669 616.858 750.669 612V584.801C720.554 581.886 696.267 557.599 693.353 527.484C693.353 525.541 694.324 522.627 695.296 520.685C697.239 518.742 699.182 517.77 702.096 517.77H732.211C736.097 517.77 739.983 520.685 740.954 524.57C742.897 532.342 749.697 538.171 758.44 538.171H783.698C798.27 538.171 810.899 527.485 811.87 514.856C812.842 507.084 809.927 500.283 805.07 494.454C800.213 488.626 792.441 485.712 785.641 485.712H766.212C727.354 485.712 693.353 456.568 689.467 419.653C685.581 380.795 712.782 345.822 750.669 339.993V312.793C750.669 307.936 754.555 304.049 759.412 304.049H788.555C793.413 304.049 797.299 307.936 797.299 312.793V339.993C827.414 342.907 851.7 367.195 854.614 397.31C854.614 399.253 853.643 402.166 852.672 404.109C850.729 406.052 848.786 407.023 845.871 407.023H815.756C811.87 407.023 807.985 404.11 807.013 400.224C805.07 392.452 798.27 386.624 789.527 386.624H764.269C749.697 386.624 737.068 397.31 736.097 409.939C735.125 417.71 738.04 424.51 742.897 430.339C747.754 436.168 755.526 439.082 762.326 439.082H784.67C805.07 439.082 825.471 447.825 839.071 463.368C853.643 478.911 859.472 499.313 857.529 520.685C855.586 550.8 830.328 577.028 797.299 583.828Z" fill="white"/>
<path d="M302.764 1503.25L89.8081 1134.4L0 1186.25L212.956 1555.1L302.764 1503.25Z" fill="white"/>
<path d="M1382.54 1152.88C1369.67 1114 1326.87 1092.41 1288 1105.27L977.693 1209.38C968.67 1224.17 955.869 1237.95 940.302 1246.94C919.945 1258.69 895.44 1263.26 872.268 1259.07L520.584 1200.25C513.72 1199.42 507.683 1191.73 509.707 1184.17C510.534 1177.31 518.225 1171.27 525.78 1173.29L878.155 1233.32C895.661 1235.98 912.796 1232.48 928.362 1223.49C941.534 1215.89 951.434 1205.38 958.063 1191.97C960.778 1185.61 963.494 1179.26 964.826 1170.5C967.998 1151.11 964.305 1130.88 952.231 1115.5C941.353 1099.43 923.983 1088.7 903.897 1084.33L492.14 1015.48C438.932 1006.28 384.441 1016.98 337.74 1043.94L135.373 1160.78L302.696 1450.59L366.16 1413.95C385.319 1402.89 406.738 1398.51 429.034 1398.41C458.885 1400.33 487.217 1407.93 512.835 1421.88C530.205 1432.61 547.896 1438.36 564.205 1441.72C627.364 1451.56 689.967 1452.14 751.828 1440.38C787.987 1433.87 823.269 1423.08 857.674 1408.01L1336.14 1246.73C1340.42 1245.86 1345.21 1243.09 1350 1240.33C1379.94 1223.04 1393.84 1186.28 1382.54 1152.88Z" fill="white"/>
</svg>
