<svg width="57" height="56" viewBox="0 0 57 56" fill="none" xmlns="http://www.w3.org/2000/svg">
<path d="M31 39.0001C31 38.4697 30.7893 37.961 30.4142 37.5859C30.0391 37.2108 29.5304 37.0001 29 37.0001H19V35.0001H21V25.4661C20.3605 24.9499 19.5582 24.6781 18.7367 24.6994C17.9151 24.7207 17.1279 25.0336 16.516 25.5821L9.669 31.7431C9.48541 31.9085 9.24709 32 9 32.0001H8V46.0001H14C15.0609 46.0001 16.0783 45.5787 16.8284 44.8285C17.5786 44.0784 18 43.061 18 42.0001C18 41.7349 18.1054 41.4805 18.2929 41.293C18.4804 41.1055 18.7348 41.0001 19 41.0001H29C29.5304 41.0001 30.0391 40.7894 30.4142 40.4143C30.7893 40.0392 31 39.5305 31 39.0001Z" fill="white"/>
<path d="M0 48H6V30H0V48ZM2 44H4V46H2V44Z" fill="white"/>
<path d="M36 34C38.2091 34 40 32.2091 40 30C40 27.7909 38.2091 26 36 26C33.7909 26 32 27.7909 32 30C32 32.2091 33.7909 34 36 34Z" fill="white"/>
<path d="M23 35H29C30.0609 35 31.0783 35.4214 31.8284 36.1716C32.5786 36.9217 33 37.9391 33 39C33 40.0609 32.5786 41.0783 31.8284 41.8284C31.0783 42.5786 30.0609 43 29 43H23V56H49V8H23V35ZM30 30C30 28.8133 30.3519 27.6533 31.0112 26.6666C31.6705 25.6799 32.6075 24.9108 33.7039 24.4567C34.8003 24.0026 36.0067 23.8838 37.1705 24.1153C38.3344 24.3468 39.4035 24.9182 40.2426 25.7574C41.0818 26.5965 41.6532 27.6656 41.8847 28.8295C42.1162 29.9933 41.9974 31.1997 41.5433 32.2961C41.0892 33.3925 40.3201 34.3295 39.3334 34.9888C38.3467 35.6481 37.1867 36 36 36C34.4092 35.9984 32.884 35.3658 31.7591 34.2409C30.6342 33.116 30.0016 31.5908 30 30ZM27 54H25V52H27V54ZM47 54H45V52H47V54ZM45 10H47V12H45V10ZM25 10H27V12H25V10ZM25 15C25 14.7348 25.1054 14.4804 25.2929 14.2929C25.4804 14.1054 25.7348 14 26 14C26.7956 14 27.5587 13.6839 28.1213 13.1213C28.6839 12.5587 29 11.7956 29 11C29 10.7348 29.1054 10.4804 29.2929 10.2929C29.4804 10.1054 29.7348 10 30 10H42C42.2652 10 42.5196 10.1054 42.7071 10.2929C42.8946 10.4804 43 10.7348 43 11C43 11.7956 43.3161 12.5587 43.8787 13.1213C44.4413 13.6839 45.2044 14 46 14C46.2652 14 46.5196 14.1054 46.7071 14.2929C46.8946 14.4804 47 14.7348 47 15V49C47 49.2652 46.8946 49.5196 46.7071 49.7071C46.5196 49.8946 46.2652 50 46 50C45.2044 50 44.4413 50.3161 43.8787 50.8787C43.3161 51.4413 43 52.2044 43 53C43 53.2652 42.8946 53.5196 42.7071 53.7071C42.5196 53.8946 42.2652 54 42 54H30C29.7348 54 29.4804 53.8946 29.2929 53.7071C29.1054 53.5196 29 53.2652 29 53C29 52.2044 28.6839 51.4413 28.1213 50.8787C27.5587 50.3161 26.7956 50 26 50C25.7348 50 25.4804 49.8946 25.2929 49.7071C25.1054 49.5196 25 49.2652 25 49V45H27V48.1C27.9602 48.2975 28.8414 48.7723 29.5346 49.4654C30.2277 50.1586 30.7025 51.0398 30.9 52H41.1C41.2975 51.0398 41.7723 50.1586 42.4654 49.4654C43.1586 48.7723 44.0398 48.2975 45 48.1V15.9C44.0398 15.7025 43.1586 15.2277 42.4654 14.5346C41.7723 13.8414 41.2975 12.9602 41.1 12H30.9C30.7025 12.9602 30.2277 13.8414 29.5346 14.5346C28.8414 15.2277 27.9602 15.7025 27 15.9V33H25V15Z" fill="white"/>
<path d="M29 0V2H54C54.2652 2 54.5196 2.10536 54.7071 2.29289C54.8946 2.48043 55 2.73478 55 3V50H57V0H29Z" fill="white"/>
<path d="M25 6H50C50.2652 6 50.5196 6.10536 50.7071 6.29289C50.8946 6.48043 51 6.73478 51 7V54H53V4H25V6Z" fill="white"/>
</svg>
